<svg width="808" height="347" viewBox="0 0 808 347" fill="none" xmlns="http://www.w3.org/2000/svg">
<path d="M202.937 229.159C197.721 229.159 193.23 227.928 189.463 225.464C185.696 223.001 182.798 219.609 180.769 215.286C178.741 210.964 177.727 206.026 177.727 200.472C177.727 194.821 178.765 189.835 180.842 185.512C182.943 181.165 185.865 177.773 189.607 175.334C193.375 172.871 197.769 171.639 202.792 171.639C206.704 171.639 210.23 172.364 213.369 173.812C216.508 175.261 219.08 177.29 221.084 179.898C223.088 182.506 224.332 185.548 224.815 189.026H216.267C215.615 186.49 214.166 184.244 211.92 182.288C209.698 180.308 206.704 179.318 202.937 179.318C199.605 179.318 196.683 180.187 194.171 181.926C191.684 183.641 189.74 186.067 188.34 189.207C186.963 192.322 186.275 195.98 186.275 200.182C186.275 204.48 186.951 208.223 188.303 211.411C189.68 214.598 191.612 217.073 194.099 218.836C196.61 220.599 199.556 221.48 202.937 221.48C205.159 221.48 207.175 221.094 208.986 220.321C210.797 219.548 212.33 218.438 213.586 216.989C214.842 215.54 215.735 213.801 216.267 211.773H224.815C224.332 215.057 223.137 218.015 221.229 220.647C219.345 223.255 216.846 225.332 213.731 226.877C210.64 228.398 207.042 229.159 202.937 229.159ZM245.86 153.818V228H237.311V153.818H245.86ZM261.516 228V172.364H270.065V228H261.516ZM265.863 163.091C264.197 163.091 262.76 162.523 261.553 161.388C260.369 160.254 259.778 158.889 259.778 157.295C259.778 155.702 260.369 154.337 261.553 153.202C262.76 152.067 264.197 151.5 265.863 151.5C267.529 151.5 268.954 152.067 270.137 153.202C271.344 154.337 271.948 155.702 271.948 157.295C271.948 158.889 271.344 160.254 270.137 161.388C268.954 162.523 267.529 163.091 265.863 163.091ZM285.721 228V172.364H293.98V181.057H294.704C295.863 178.087 297.735 175.781 300.319 174.138C302.903 172.472 306.006 171.639 309.628 171.639C313.298 171.639 316.353 172.472 318.792 174.138C321.255 175.781 323.175 178.087 324.551 181.057H325.131C326.555 178.183 328.692 175.901 331.542 174.211C334.391 172.496 337.808 171.639 341.792 171.639C346.767 171.639 350.836 173.197 353.999 176.312C357.163 179.403 358.744 184.22 358.744 190.764V228H350.196V190.764C350.196 186.659 349.073 183.725 346.827 181.962C344.582 180.2 341.937 179.318 338.895 179.318C334.983 179.318 331.952 180.501 329.803 182.868C327.654 185.21 326.579 188.18 326.579 191.778V228H317.886V189.895C317.886 186.732 316.86 184.184 314.807 182.252C312.755 180.296 310.111 179.318 306.875 179.318C304.653 179.318 302.577 179.91 300.645 181.093C298.737 182.276 297.192 183.918 296.008 186.019C294.849 188.096 294.27 190.499 294.27 193.227V228H285.721ZM390.746 229.304C387.22 229.304 384.021 228.64 381.147 227.312C378.274 225.96 375.992 224.016 374.301 221.48C372.611 218.92 371.766 215.83 371.766 212.207C371.766 209.02 372.394 206.436 373.649 204.456C374.905 202.452 376.583 200.882 378.684 199.747C380.785 198.612 383.103 197.767 385.639 197.212C388.198 196.632 390.77 196.173 393.354 195.835C396.735 195.401 399.475 195.075 401.576 194.857C403.701 194.616 405.247 194.217 406.213 193.662C407.203 193.107 407.698 192.141 407.698 190.764V190.474C407.698 186.901 406.72 184.124 404.764 182.143C402.832 180.163 399.898 179.173 395.962 179.173C391.881 179.173 388.681 180.067 386.363 181.854C384.045 183.641 382.415 185.548 381.473 187.577L373.36 184.679C374.808 181.298 376.74 178.666 379.155 176.783C381.594 174.875 384.25 173.547 387.124 172.798C390.022 172.026 392.871 171.639 395.672 171.639C397.459 171.639 399.512 171.857 401.83 172.291C404.172 172.702 406.43 173.559 408.603 174.863C410.801 176.167 412.624 178.135 414.073 180.767C415.522 183.399 416.246 186.925 416.246 191.344V228H407.698V220.466H407.263C406.683 221.673 405.718 222.965 404.365 224.342C403.013 225.718 401.214 226.889 398.968 227.855C396.723 228.821 393.982 229.304 390.746 229.304ZM392.05 221.625C395.431 221.625 398.28 220.961 400.598 219.633C402.941 218.305 404.703 216.59 405.887 214.489C407.094 212.388 407.698 210.179 407.698 207.861V200.037C407.335 200.472 406.539 200.87 405.307 201.232C404.1 201.57 402.699 201.872 401.105 202.138C399.536 202.379 398.002 202.597 396.505 202.79C395.032 202.959 393.837 203.104 392.919 203.224C390.698 203.514 388.621 203.985 386.689 204.637C384.781 205.265 383.236 206.219 382.053 207.499C380.894 208.754 380.314 210.469 380.314 212.642C380.314 215.612 381.413 217.858 383.61 219.379C385.832 220.876 388.645 221.625 392.05 221.625ZM456.044 172.364V179.608H427.212V172.364H456.044ZM435.615 159.034H444.164V212.062C444.164 214.477 444.514 216.288 445.214 217.496C445.939 218.679 446.856 219.476 447.967 219.886C449.102 220.273 450.297 220.466 451.553 220.466C452.495 220.466 453.267 220.418 453.871 220.321C454.475 220.2 454.958 220.104 455.32 220.031L457.059 227.71C456.479 227.928 455.67 228.145 454.632 228.362C453.593 228.604 452.277 228.724 450.684 228.724C448.269 228.724 445.902 228.205 443.584 227.167C441.29 226.129 439.382 224.547 437.861 222.422C436.364 220.297 435.615 217.616 435.615 214.381V159.034ZM491.632 229.159C486.271 229.159 481.647 227.976 477.759 225.609C473.896 223.219 470.913 219.886 468.813 215.612C466.736 211.314 465.697 206.315 465.697 200.616C465.697 194.918 466.736 189.895 468.813 185.548C470.913 181.178 473.835 177.773 477.578 175.334C481.345 172.871 485.74 171.639 490.763 171.639C493.661 171.639 496.522 172.122 499.347 173.088C502.173 174.054 504.744 175.624 507.063 177.797C509.381 179.946 511.228 182.795 512.604 186.345C513.981 189.895 514.669 194.266 514.669 199.457V203.08H471.783V195.69H505.976C505.976 192.551 505.348 189.75 504.092 187.287C502.861 184.824 501.098 182.88 498.804 181.455C496.534 180.031 493.854 179.318 490.763 179.318C487.358 179.318 484.412 180.163 481.925 181.854C479.462 183.52 477.566 185.693 476.238 188.374C474.91 191.054 474.246 193.928 474.246 196.994V201.92C474.246 206.122 474.97 209.684 476.419 212.606C477.892 215.504 479.933 217.713 482.541 219.234C485.148 220.732 488.179 221.48 491.632 221.48C493.878 221.48 495.906 221.166 497.717 220.538C499.553 219.886 501.134 218.92 502.462 217.641C503.791 216.337 504.817 214.719 505.541 212.787L513.8 215.105C512.93 217.906 511.469 220.369 509.417 222.494C507.364 224.595 504.829 226.237 501.81 227.42C498.792 228.58 495.399 229.159 491.632 229.159ZM556.36 248.864V172.364H564.619V181.202H565.633C566.261 180.236 567.13 179.004 568.241 177.507C569.376 175.986 570.994 174.634 573.094 173.45C575.219 172.243 578.093 171.639 581.715 171.639C586.4 171.639 590.529 172.81 594.103 175.153C597.677 177.495 600.466 180.815 602.47 185.114C604.474 189.412 605.477 194.483 605.477 200.327C605.477 206.219 604.474 211.326 602.47 215.648C600.466 219.947 597.689 223.279 594.139 225.646C590.59 227.988 586.496 229.159 581.86 229.159C578.286 229.159 575.425 228.567 573.276 227.384C571.126 226.177 569.472 224.812 568.313 223.291C567.154 221.746 566.261 220.466 565.633 219.452H564.908V248.864H556.36ZM564.764 200.182C564.764 204.384 565.379 208.09 566.611 211.302C567.842 214.489 569.641 216.989 572.008 218.8C574.374 220.587 577.272 221.48 580.701 221.48C584.275 221.48 587.257 220.538 589.648 218.655C592.063 216.747 593.874 214.187 595.081 210.976C596.313 207.74 596.928 204.142 596.928 200.182C596.928 196.27 596.325 192.744 595.117 189.605C593.934 186.442 592.135 183.942 589.72 182.107C587.33 180.248 584.323 179.318 580.701 179.318C577.224 179.318 574.302 180.2 571.935 181.962C569.569 183.701 567.782 186.14 566.575 189.279C565.367 192.394 564.764 196.028 564.764 200.182ZM653.579 205.253V172.364H662.127V228H653.579V218.582H652.999C651.695 221.408 649.667 223.81 646.914 225.79C644.161 227.746 640.684 228.724 636.482 228.724C633.005 228.724 629.914 227.964 627.21 226.442C624.505 224.897 622.38 222.579 620.835 219.488C619.289 216.373 618.516 212.449 618.516 207.716V172.364H627.065V207.136C627.065 211.193 628.2 214.429 630.469 216.844C632.764 219.259 635.685 220.466 639.235 220.466C641.36 220.466 643.521 219.923 645.719 218.836C647.94 217.749 649.8 216.083 651.297 213.837C652.818 211.592 653.579 208.73 653.579 205.253ZM686.332 153.818V228H677.784V153.818H686.332ZM741.398 184.824L733.719 186.997C733.236 185.717 732.524 184.474 731.582 183.266C730.664 182.035 729.409 181.021 727.815 180.224C726.221 179.427 724.181 179.028 721.694 179.028C718.289 179.028 715.451 179.813 713.181 181.383C710.936 182.928 709.813 184.896 709.813 187.287C709.813 189.412 710.586 191.09 712.131 192.322C713.677 193.553 716.091 194.58 719.375 195.401L727.634 197.429C732.608 198.636 736.315 200.484 738.754 202.971C741.193 205.434 742.412 208.609 742.412 212.497C742.412 215.685 741.495 218.534 739.659 221.045C737.848 223.557 735.313 225.537 732.053 226.986C728.793 228.435 725.002 229.159 720.679 229.159C715.005 229.159 710.308 227.928 706.589 225.464C702.87 223.001 700.516 219.403 699.526 214.67L707.64 212.642C708.412 215.636 709.873 217.882 712.022 219.379C714.196 220.876 717.033 221.625 720.534 221.625C724.519 221.625 727.682 220.78 730.025 219.089C732.391 217.375 733.574 215.322 733.574 212.932C733.574 211 732.898 209.382 731.546 208.078C730.194 206.75 728.117 205.76 725.316 205.108L716.043 202.935C710.948 201.727 707.205 199.856 704.814 197.32C702.448 194.761 701.265 191.561 701.265 187.722C701.265 184.582 702.146 181.805 703.909 179.391C705.696 176.976 708.123 175.08 711.189 173.704C714.28 172.327 717.782 171.639 721.694 171.639C727.199 171.639 731.522 172.847 734.661 175.261C737.824 177.676 740.07 180.864 741.398 184.824ZM778.607 229.159C773.246 229.159 768.622 227.976 764.734 225.609C760.87 223.219 757.888 219.886 755.787 215.612C753.71 211.314 752.672 206.315 752.672 200.616C752.672 194.918 753.71 189.895 755.787 185.548C757.888 181.178 760.81 177.773 764.553 175.334C768.32 172.871 772.715 171.639 777.737 171.639C780.635 171.639 783.497 172.122 786.322 173.088C789.147 174.054 791.719 175.624 794.037 177.797C796.355 179.946 798.203 182.795 799.579 186.345C800.955 189.895 801.644 194.266 801.644 199.457V203.08H758.757V195.69H792.95C792.95 192.551 792.323 189.75 791.067 187.287C789.835 184.824 788.073 182.88 785.779 181.455C783.509 180.031 780.828 179.318 777.737 179.318C774.333 179.318 771.387 180.163 768.899 181.854C766.436 183.52 764.541 185.693 763.213 188.374C761.884 191.054 761.22 193.928 761.22 196.994V201.92C761.22 206.122 761.945 209.684 763.394 212.606C764.867 215.504 766.907 217.713 769.515 219.234C772.123 220.732 775.154 221.48 778.607 221.48C780.852 221.48 782.881 221.166 784.692 220.538C786.527 219.886 788.109 218.92 789.437 217.641C790.765 216.337 791.791 214.719 792.516 212.787L800.774 215.105C799.905 217.906 798.444 220.369 796.392 222.494C794.339 224.595 791.803 226.237 788.785 227.42C785.767 228.58 782.374 229.159 778.607 229.159Z" fill="#410B33"/>
<path d="M324.678 16.5164C289.329 68.9291 213.57 157.596 193.322 92.9628C173.074 28.3292 272.456 15.0679 324.678 16.5164Z" fill="#98C4A4" stroke="#410B33"/>
<path d="M164.444 8.01352C175.192 70.3124 181.85 186.747 122.509 154.096C63.1686 121.444 125.741 43.1028 164.444 8.01352Z" fill="#3B824E" stroke="#410B33"/>
<path d="M16.379 105.68C69.6073 139.788 160.029 213.446 95.8885 235.205C31.7482 256.965 16.1571 157.921 16.379 105.68Z" fill="#0B4119" stroke="#410B33"/>
<path d="M17.4557 265.304C79.4685 253.013 195.702 243.465 164.534 303.598C133.367 363.732 53.4954 303.124 17.4557 265.304Z" fill="#410B33" stroke="#410B33"/>
</svg>
